<svg width="37" height="35" viewBox="0 0 37 35" fill="none" xmlns="http://www.w3.org/2000/svg">
<path d="M25.1556 11.4055C25.1556 11.2379 25.0114 11.1008 24.8353 11.1008L22.1927 11.1123L18.2128 15.6254L14.2369 11.1161L11.5903 11.1046C11.4142 11.1046 11.27 11.2379 11.27 11.4093C11.27 11.4817 11.298 11.5502 11.3461 11.6074L16.5552 17.5107L11.3461 23.4102C11.2977 23.466 11.2709 23.5359 11.27 23.6083C11.27 23.7758 11.4142 23.9129 11.5903 23.9129L14.2369 23.9015L18.2128 19.3883L22.1887 23.8977L24.8313 23.9091C25.0074 23.9091 25.1516 23.7758 25.1516 23.6044C25.1516 23.5321 25.1235 23.4635 25.0755 23.4064L19.8744 17.5069L25.0835 11.6036C25.1315 11.5502 25.1556 11.4779 25.1556 11.4055Z" fill="#3C5CEE"/>
<path d="M18.2134 0.368164C8.30772 0.368164 0.275879 8.0082 0.275879 17.4307C0.275879 26.8531 8.30772 34.4932 18.2134 34.4932C28.119 34.4932 36.1509 26.8531 36.1509 17.4307C36.1509 8.0082 28.119 0.368164 18.2134 0.368164ZM18.2134 31.5986C9.98936 31.5986 3.31885 25.2535 3.31885 17.4307C3.31885 9.60781 9.98936 3.2627 18.2134 3.2627C26.4374 3.2627 33.1079 9.60781 33.1079 17.4307C33.1079 25.2535 26.4374 31.5986 18.2134 31.5986Z" fill="#3C5CEE"/>
</svg>
