<svg width="149" height="149" viewBox="0 0 149 149" fill="none" xmlns="http://www.w3.org/2000/svg">
<circle r="71.3036" transform="matrix(-4.37114e-08 1 1 4.37114e-08 74.5834 74.6513)" stroke="url(#paint0_linear)" stroke-width="5"/>
<path d="M33.0667 116.185L38.6821 95.5515C34.982 89.2087 33.038 81.9949 33.0501 74.6518C33.0501 51.7128 51.6447 33.1182 74.5837 33.1182C97.5227 33.1182 116.117 51.7128 116.117 74.6518C116.117 97.5908 97.5227 116.185 74.5837 116.185C67.2438 116.197 60.033 114.255 53.6923 110.558L33.0667 116.185ZM59.5942 55.1642C59.0579 55.1975 58.5338 55.3388 58.0533 55.5795C57.6028 55.8347 57.1915 56.1536 56.8322 56.5265C56.3338 56.9958 56.0514 57.4029 55.7482 57.7974C54.2132 59.7952 53.3875 62.2474 53.4016 64.7668C53.4099 66.8019 53.9415 68.7831 54.7722 70.6355C56.4709 74.3818 59.2661 78.3482 62.9584 82.024C63.8473 82.9086 64.7153 83.7974 65.6498 84.624C70.2326 88.6588 75.6937 91.5685 81.5987 93.1217L83.962 93.4831C84.7304 93.5246 85.4987 93.4665 86.2712 93.4291C87.4809 93.3666 88.662 93.0391 89.731 92.4697C90.2749 92.1895 90.8057 91.8846 91.3217 91.5559C91.3217 91.5559 91.5003 91.4396 91.8409 91.1821C92.4016 90.7668 92.7463 90.4719 93.2115 89.986C93.5562 89.6288 93.8553 89.2093 94.0837 88.7316C94.4077 88.0546 94.7316 86.7629 94.8645 85.6872C94.9642 84.8649 94.9351 84.4163 94.9227 84.138C94.9061 83.6936 94.5364 83.2326 94.1336 83.0374L91.7163 81.9534C91.7163 81.9534 88.1029 80.3792 85.8974 79.3741C85.6649 79.2728 85.4157 79.215 85.1623 79.2038C84.8781 79.1747 84.591 79.2066 84.3202 79.2976C84.0494 79.3886 83.8012 79.5365 83.5923 79.7313V79.723C83.5716 79.723 83.2933 79.9597 80.2904 83.5981C80.1181 83.8297 79.8806 84.0047 79.6084 84.1009C79.3362 84.197 79.0416 84.21 78.762 84.138C78.4913 84.0657 78.2262 83.9741 77.9687 83.8639C77.4537 83.6479 77.2751 83.5649 76.922 83.4112L76.9013 83.4029C74.5252 82.3655 72.3252 80.9642 70.3805 79.2495C69.8572 78.7927 69.3712 78.2942 68.8728 77.8125C67.2388 76.2476 65.8148 74.4774 64.6364 72.546L64.3913 72.1514C64.2153 71.8863 64.073 71.6003 63.9677 71.3C63.8099 70.6894 64.2211 70.1994 64.2211 70.1994C64.2211 70.1994 65.2303 69.0946 65.6997 68.4965C66.0904 67.9994 66.455 67.4823 66.792 66.9473C67.2821 66.1581 67.4358 65.3482 67.1783 64.7211C66.0153 61.8802 64.8108 59.0517 63.5731 56.2441C63.3281 55.6875 62.6013 55.2888 61.9409 55.2099C61.7166 55.185 61.4923 55.16 61.268 55.1434C60.7103 55.1157 60.1513 55.1213 59.5942 55.16V55.1642Z" fill="#3C5CEE"/>
<defs>
<linearGradient id="paint0_linear" x1="123.586" y1="16.7001" x2="28.3236" y2="124.98" gradientUnits="userSpaceOnUse">
<stop stop-color="#7364F5"/>
<stop offset="1" stop-color="#445EEF"/>
</linearGradient>
</defs>
</svg>
