<svg width="50" height="50" viewBox="0 0 50 50" fill="none" xmlns="http://www.w3.org/2000/svg">
<path d="M24.9902 0.507812C18.3546 0.507812 17.5202 0.538377 14.9131 0.654522C12.3059 0.77678 10.5301 1.18635 8.97438 1.79152C7.34253 2.40532 5.86442 3.36812 4.64339 4.61263C3.39965 5.83428 2.43696 7.31221 1.82228 8.94362C1.21711 10.4963 0.804486 12.2752 0.685284 14.8731C0.569139 17.4864 0.538574 18.3178 0.538574 24.9625C0.538574 31.6011 0.569139 32.4325 0.685284 35.0396C0.807542 37.6437 1.21711 39.4195 1.82228 40.9752C2.44886 42.5829 3.28327 43.9461 4.64339 45.3062C6.00046 46.6664 7.36363 47.5038 8.97133 48.1273C10.5301 48.7325 12.3029 49.1451 14.907 49.2643C17.5172 49.3805 18.3485 49.4111 24.9902 49.4111C31.6319 49.4111 32.4602 49.3805 35.0704 49.2643C37.6714 49.1421 39.4533 48.7325 41.0091 48.1273C42.6399 47.5133 44.1169 46.5505 45.337 45.3062C46.6971 43.9461 47.5315 42.5829 48.1581 40.9752C48.7602 39.4195 49.1729 37.6437 49.2951 35.0396C49.4113 32.4325 49.4418 31.6011 49.4418 24.9594C49.4418 18.3178 49.4113 17.4864 49.2951 14.8762C49.1729 12.2752 48.7602 10.4963 48.1581 8.94362C47.5435 7.31217 46.5808 5.83422 45.337 4.61263C44.1164 3.36766 42.6381 2.40479 41.006 1.79152C39.4472 1.18635 37.6684 0.773724 35.0673 0.654522C32.4571 0.538377 31.6288 0.507812 24.9841 0.507812H24.9933H24.9902ZM22.7987 4.91522H24.9933C31.5218 4.91522 32.2951 4.93661 34.8717 5.05581C37.2557 5.16279 38.5517 5.56319 39.4136 5.89634C40.5537 6.33952 41.3697 6.87135 42.2255 7.72715C43.0813 8.58296 43.6101 9.39598 44.0533 10.5391C44.3895 11.398 44.7868 12.6939 44.8938 15.0779C45.013 17.6545 45.0375 18.4278 45.0375 24.9533C45.0375 31.4789 45.013 32.2552 44.8938 34.8318C44.7868 37.2158 44.3865 38.5087 44.0533 39.3706C43.6613 40.4323 43.0356 41.3923 42.2225 42.1795C41.3667 43.0353 40.5537 43.5641 39.4105 44.0073C38.5547 44.3435 37.2588 44.7408 34.8717 44.8508C32.2951 44.967 31.5218 44.9945 24.9933 44.9945C18.4647 44.9945 17.6883 44.967 15.1117 44.8508C12.7277 44.7408 11.4348 44.3435 10.5729 44.0073C9.51079 43.6158 8.54992 42.9912 7.76097 42.1795C6.94719 41.391 6.32054 40.4302 5.9271 39.3676C5.59395 38.5087 5.19355 37.2128 5.08658 34.8287C4.97043 32.2521 4.94598 31.4789 4.94598 24.9472C4.94598 18.4186 4.97043 17.6484 5.08658 15.0718C5.19661 12.6878 5.59395 11.3918 5.93016 10.5299C6.37334 9.38987 6.90517 8.57379 7.76097 7.71799C8.61678 6.86218 9.4298 6.33341 10.5729 5.89023C11.4348 5.55402 12.7277 5.15668 15.1117 5.04665C17.3674 4.94273 18.2415 4.91216 22.7987 4.9091V4.91522V4.91522ZM38.0443 8.97419C37.659 8.97419 37.2774 9.05008 36.9214 9.19754C36.5654 9.345 36.242 9.56113 35.9695 9.83359C35.6971 10.1061 35.4809 10.4295 35.3335 10.7855C35.186 11.1415 35.1101 11.5231 35.1101 11.9084C35.1101 12.2937 35.186 12.6753 35.3335 13.0312C35.4809 13.3872 35.6971 13.7107 35.9695 13.9832C36.242 14.2556 36.5654 14.4718 36.9214 14.6192C37.2774 14.7667 37.659 14.8426 38.0443 14.8426C38.8225 14.8426 39.5688 14.5334 40.1191 13.9832C40.6694 13.4329 40.9785 12.6866 40.9785 11.9084C40.9785 11.1302 40.6694 10.3839 40.1191 9.83359C39.5688 9.28332 38.8225 8.97419 38.0443 8.97419V8.97419ZM24.9933 12.4035C23.3277 12.3775 21.6736 12.6831 20.1273 13.3026C18.581 13.922 17.1734 14.8428 15.9863 16.0114C14.7993 17.1801 13.8567 18.5732 13.2132 20.1096C12.5697 21.6461 12.2384 23.2952 12.2384 24.961C12.2384 26.6267 12.5697 28.2758 13.2132 29.8123C13.8567 31.3487 14.7993 32.7419 15.9863 33.9105C17.1734 35.0791 18.581 36 20.1273 36.6194C21.6736 37.2388 23.3277 37.5444 24.9933 37.5184C28.2898 37.467 31.4339 36.1213 33.7469 33.772C36.0599 31.4226 37.3563 28.2579 37.3563 24.961C37.3563 21.6641 36.0599 18.4994 33.7469 16.15C31.4339 13.8006 28.2898 12.455 24.9933 12.4035V12.4035ZM24.9933 16.8079C27.1552 16.8079 29.2286 17.6667 30.7573 19.1954C32.286 20.7241 33.1448 22.7975 33.1448 24.9594C33.1448 27.1214 32.286 29.1947 30.7573 30.7235C29.2286 32.2522 27.1552 33.111 24.9933 33.111C22.8313 33.111 20.7579 32.2522 19.2292 30.7235C17.7005 29.1947 16.8417 27.1214 16.8417 24.9594C16.8417 22.7975 17.7005 20.7241 19.2292 19.1954C20.7579 17.6667 22.8313 16.8079 24.9933 16.8079V16.8079Z" fill="#3C5CEE"/>
</svg>
