<svg width="50" height="40" viewBox="0 0 50 40" fill="none" xmlns="http://www.w3.org/2000/svg">
<path fill-rule="evenodd" clip-rule="evenodd" d="M49.76 4.828C47.9329 5.63776 45.9947 6.16892 44.01 6.40373C46.1005 5.15254 47.6649 3.18419 48.4119 0.865269C46.4467 2.03216 44.2964 2.85458 42.0541 3.29699C40.5467 1.68724 38.55 0.620148 36.374 0.261355C34.1981 -0.0974383 31.9645 0.272139 30.0201 1.31272C28.0757 2.3533 26.5291 4.00667 25.6206 6.01617C24.712 8.02568 24.4923 10.2789 24.9954 12.4261C21.0144 12.2271 17.1198 11.1928 13.5647 9.39016C10.0096 7.58756 6.87355 5.05709 4.36039 1.9632C3.46966 3.49122 3.0016 5.22875 3.00423 6.99743C3.00423 10.4702 4.77109 13.5362 7.459 15.3316C5.86924 15.2801 4.31448 14.8515 2.92291 14.0811V14.2031C2.9226 16.5152 3.72221 18.7561 5.18607 20.5458C6.64993 22.3354 8.68787 23.5634 10.9541 24.0215C9.47931 24.4206 7.93317 24.4797 6.43223 24.1943C7.07188 26.1836 8.31724 27.9233 9.99417 29.1701C11.6711 30.4168 13.6958 31.1083 15.785 31.1479C12.2382 33.9296 7.85938 35.4383 3.35191 35.4319C2.5427 35.4319 1.74568 35.3851 0.962891 35.2936C5.54093 38.2343 10.8684 39.7955 16.3096 39.7911C34.7244 39.7911 44.7928 24.5359 44.7928 11.3058C44.7928 10.8727 44.7827 10.4417 44.7644 10.0127C46.7244 8.595 48.416 6.83931 49.76 4.828Z" fill="#3C5CEE"/>
</svg>
