<svg width="50" height="50" viewBox="0 0 50 50" fill="none" xmlns="http://www.w3.org/2000/svg">
<path d="M46.1654 49.4896C20.1969 49.5261 0.486792 29.5816 0.514189 3.83831C0.514189 2.15497 1.87791 0.785156 3.55821 0.785156H11.5944C13.1012 0.785156 14.3828 1.89318 14.605 3.38476C15.135 6.96165 16.1755 10.444 17.6947 13.7253L18.0082 14.4011C18.2188 14.8558 18.2641 15.3698 18.1363 15.8544C18.0085 16.339 17.7156 16.7638 17.3081 17.0555C14.8181 18.8332 13.8683 22.4099 15.8074 25.1982C18.2396 28.6989 21.3049 31.7673 24.8055 34.1994C27.5969 36.1354 31.1736 35.1857 32.9483 32.6987C33.2397 32.29 33.6648 31.996 34.1501 31.8676C34.6354 31.7392 35.1503 31.7844 35.6057 31.9956L36.2785 32.306C39.5599 33.8281 43.0423 34.8691 46.619 35.3988C48.1106 35.621 49.2186 36.9025 49.2186 38.4124V46.4456C49.2186 46.8456 49.1398 47.2416 48.9866 47.6112C48.8334 47.9807 48.6089 48.3164 48.326 48.5991C48.043 48.8818 47.707 49.1059 47.3374 49.2587C46.9677 49.4115 46.5715 49.49 46.1715 49.4896H46.1654Z" fill="#3C5CEE"/>
</svg>
