<svg width="35" height="35" viewBox="0 0 35 35" fill="none" xmlns="http://www.w3.org/2000/svg">
<path d="M25.6287 22.3561C27.68 19.557 28.5988 16.0865 28.2012 12.6391C27.8036 9.19166 26.119 6.02146 23.4844 3.76274C20.8497 1.50403 17.4594 0.323379 13.9917 0.456997C10.524 0.590614 7.23459 2.02865 4.7816 4.48339C2.32861 6.93814 0.892933 10.2286 0.761797 13.6964C0.63066 17.1642 1.81374 20.5537 4.07433 23.1867C6.33493 25.8196 9.50634 27.502 12.9541 27.8971C16.4018 28.2922 19.8716 27.371 22.6692 25.3177H22.6671C22.7307 25.4025 22.7985 25.483 22.8747 25.5613L31.0308 33.7174C31.428 34.1149 31.9669 34.3383 32.5288 34.3385C33.0908 34.3387 33.6298 34.1157 34.0273 33.7184C34.4248 33.3212 34.6483 32.7824 34.6485 32.2204C34.6487 31.6584 34.4256 31.1194 34.0284 30.7219L25.8723 22.5659C25.7966 22.4892 25.7152 22.4184 25.6287 22.354V22.3561ZM26.1753 14.2128C26.1753 15.7429 25.8739 17.258 25.2884 18.6716C24.7028 20.0853 23.8446 21.3697 22.7626 22.4516C21.6807 23.5336 20.3963 24.3918 18.9826 24.9774C17.569 25.5629 16.0539 25.8643 14.5238 25.8643C12.9937 25.8643 11.4786 25.5629 10.065 24.9774C8.65134 24.3918 7.36689 23.5336 6.28495 22.4516C5.20301 21.3697 4.34477 20.0853 3.75922 18.6716C3.17368 17.258 2.87231 15.7429 2.87231 14.2128C2.87231 11.1226 4.09987 8.15903 6.28495 5.97395C8.47003 3.78887 11.4336 2.56131 14.5238 2.56131C17.614 2.56131 20.5776 3.78887 22.7626 5.97395C24.9477 8.15903 26.1753 11.1226 26.1753 14.2128Z" fill="#3C5CEE"/>
</svg>
